<?xml version="1.0" encoding="utf-8"?>
<!-- Generator: Adobe Illustrator 28.1.0, SVG Export Plug-In . SVG Version: 6.00 Build 0)  -->
<svg version="1.1" id="Layer_1" xmlns="http://www.w3.org/2000/svg" xmlns:xlink="http://www.w3.org/1999/xlink" x="0px" y="0px"
	 viewBox="0 0 463.41 505.7" style="enable-background:new 0 0 463.41 505.7;" xml:space="preserve">
<style type="text/css">
	.st0{fill:#39B54A;}
	.st1{fill:#FFFFFF;}
	.st2{enable-background:new    ;}
	.st3{clip-path:url(#SVGID_00000064331323635906619760000014691133668603826110_);}
	.st4{clip-path:url(#SVGID_00000091715581470346235830000014961158557838568355_);}
</style>
<symbol  id="lines" viewBox="-303.71 -152.21 607.42 304.41">
	<rect x="-303.71" y="76.1" class="st0" width="607.42" height="38.05"/>
	<rect x="-303.71" y="38.05" class="st1" width="607.42" height="38.05"/>
	<rect x="-303.71" y="0" class="st0" width="607.42" height="38.05"/>
	<rect x="-303.71" y="-38.05" class="st1" width="607.42" height="38.05"/>
	<rect x="-303.71" y="-76.1" class="st0" width="607.42" height="38.05"/>
	<rect x="-303.71" y="-114.16" class="st1" width="607.42" height="38.05"/>
	<rect x="-303.71" y="-152.21" class="st0" width="607.42" height="38.05"/>
	<rect x="-303.71" y="114.16" class="st1" width="607.42" height="38.05"/>
</symbol>
<g>
	<g>
		<g class="st2">
			<g class="st2">
				<defs>
					<path id="SVGID_1_" class="st2" d="M60.58,372.31c11.57,17.1,41.42,21.78,86.22,9.9C102,394.09,72.15,389.41,60.58,372.31
						c-3.11-4.74-7.11-11.17-9.89-16.11c-2.36-4.2-5.2-9.97-7.23-14.34c-2.28-4.89-4.91-11.59-6.76-16.66
						c-1.46-3.98-3.07-9.39-4.29-13.45c-1.81-6.04-3.49-14.29-4.68-20.48c-0.84-4.37-1.47-10.27-2.05-14.68
						c-0.95-7.27-1.11-17.09-1.09-24.43c0.03-9.34,1.3-21.78,2.75-31c1.31-8.35,3.87-19.37,6.43-27.42
						c2.75-8.66,7.01-20.06,10.96-28.24c4.33-8.98,11.03-20.5,16.55-28.8c4.95-7.44,12.43-16.78,18.52-23.32
						c6.73-7.22,16.47-16.13,24.09-22.42c6.64-5.48,16.28-11.81,23.66-16.23c6.59-3.95,15.71-8.72,22.83-11.61
						c8.75-3.55,20.57-8,29.72-10.31c6.25-1.58,14.68-3.33,21.03-4.45c4.36-0.76,10.24-1.33,14.63-1.8
						c5.26-0.56,12.33-0.72,17.62-0.79c4.1-0.05,9.57,0.19,13.66,0.42c4.45,0.25,10.36,0.88,14.78,1.47
						c4.03,0.53,9.39,1.39,13.36,2.25c3.79,0.82,15.34,3.32,23.53,6.2c3.24,1.14,7.63,2.53,10.8,3.86
						c3.13,1.31,7.34,2.98,10.43,4.37c3.05,1.38,7.1,3.26,10.05,4.86c2.9,1.58,6.79,3.64,9.63,5.3c2.83,1.65,6.5,4.03,9.28,5.76
						c2.8,1.74,6.38,4.32,9.03,6.28c5.36,3.97,12.15,9.73,17.18,14.11c2.66,2.31,5.94,5.69,8.45,8.18c2.66,2.64,6.01,6.37,8.46,9.21
						c2.41,2.78,5.57,6.54,7.75,9.51c3.27,4.46,7.58,10.46,10.58,15.1c2.56,3.96,5.73,9.39,7.94,13.54
						c5.02,9.42,14.8,28.94,20.46,56.07c1.32,6.32,2.55,14.85,3.31,21.26c0.53,4.47,0.74,10.49,1.01,14.98
						c0.44,7.46-0.08,17.46-0.71,24.91c-0.7,8.3-2.36,19.33-4.27,27.44c-2.22,9.42-5.91,21.83-9.47,30.83
						c-3.38,8.54-8.72,19.62-13.28,27.6c-4.44,7.77-11.11,17.73-16.65,24.76c-6.15,7.81-15.18,17.58-22.39,24.42
						c-6.29,5.97-15.36,13.24-22.5,18.18c-3.99,2.76-9.37,6.38-13.61,8.74c-6.71,3.75-15.81,8.49-22.83,11.61
						c-4.33,1.93-10.23,4.25-14.73,5.74c-6.28,2.07-14.7,4.76-21.17,6.12c-8.77,1.84-20.59,3.67-29.49,4.7
						c-5.26,0.61-12.33,0.69-17.62,0.79c-4.66,0.08-10.88-0.09-15.52-0.54c-7.66-0.74-17.86-2.02-25.43-3.42
						c-3.83-0.71-8.91-1.83-12.65-2.92c-13.32-3.87-16.09-4.68-22.52-7.31c-8.95-3.66-12.59-5.17-20.47-9.23
						c-8.71-4.48-15.59-8.86-18.92-11.06c-3.43-2.27-10.17-6.81-17.76-13.06c-2.65-2.19-6.12-5.18-8.65-7.51
						c-2.54-2.33-5.8-5.58-8.25-8c-2.67-2.64-6.01-6.37-8.46-9.21c-2.41-2.78-5.42-6.65-7.75-9.51
						C65.58,379.63,62.8,375.39,60.58,372.31z"/>
				</defs>
				<clipPath id="SVGID_00000163791928328008429200000017915061478360067745_">
					<use xlink:href="#SVGID_1_"  style="overflow:visible;"/>
				</clipPath>
				<g style="clip-path:url(#SVGID_00000163791928328008429200000017915061478360067745_);">
					<g>
						<g>
							<path class="st1" d="M401.4,129.68c-2.93-3.69-6.8-8.65-9.87-12.23c-10.59-11.48-10.59-11.48-16.41-16.81
								c-11.24-9.74-11.24-9.74-17.22-14.14c-11.98-8.33-11.98-8.33-18.27-12.01c-12.89-7.1-12.89-7.1-19.68-10.16
								c-13.79-5.78-14.05-5.89-21.56-8.34l-8.5-2.56C331.87,65.16,373.7,92.67,401.4,129.68"/>
							<path class="st0" d="M441.58,229.22c-0.82-5.1-1.8-11.91-2.83-16.97c-4.38-17.85-4.74-19.31-9.21-31.44
								c-6.79-16.22-7.19-17.19-12.49-26.91c-2.9-4.87-6.77-11.37-9.89-16.11l-5.77-8.11c-27.7-37-69.52-64.52-111.51-76.24
								c-4.65-1.15-10.85-2.72-15.55-3.7c-16.25-2.7-17.22-2.87-27.29-3.55c-17.32-0.53-19.13-0.58-31.28,0.37
								c-18.55,2.28-20.49,2.51-33.35,5.64c75.2-19,177.9,27.69,230.15,104.9C429.17,181.62,438.69,206.3,441.58,229.22"/>
							<path class="st1" d="M435.58,310.88c1.55-6.56,3.64-15.31,4.83-21.95c2.39-18.97,2.82-22.38,2.67-40.45
								c-0.39-5.79-0.84-13.51-1.5-19.27c-2.89-22.92-12.41-47.6-29.02-72.13C360.32,79.89,257.61,33.19,182.42,52.2l-2.31,0.6
								c-18.03,5.51-21.78,6.65-38.42,14.32c-17.74,9.54-20.02,10.77-32.95,20.11c11.11-8.28,24.51-14.7,40.12-18.84
								c83.69-22.2,198.9,29.8,257.33,116.13C436.52,229.34,445.59,274.61,435.58,310.88"/>
							<path class="st0" d="M400.6,381.55l5.87-8.15c10.6-16.88,13.12-20.89,22.16-41.74c2.17-6.21,5.11-14.47,6.95-20.78
								c10.01-36.28,0.94-81.54-29.39-126.37C347.76,98.18,232.55,46.19,148.85,68.39c-15.6,4.14-29.01,10.57-40.12,18.84
								l-4.85,3.73c-20.28,17.43-26.18,23.28-42.61,45.74l-5.49,8.45c90.07-129.01,339.89,2.3,363.41,150.87
								C426.7,343.42,408.41,370.14,400.6,381.55"/>
							<path class="st1" d="M342.28,434.13c6.58-4.34,15.29-10.24,21.58-14.99c12.39-10.65,23.1-19.85,36.74-37.59
								C487.11,252.65,281.27,67.73,132.17,96.4c-49.53,9.52-68.35,37.01-76.38,48.74c-10.42,18.49-11.27,20-16.66,33.29
								c-6.53,18.67-7.71,22.04-11.36,40.22c32.07-139.09,248.2-91.28,332.29,41.72C393.5,313.27,408.91,390.52,342.28,434.13"/>
							<path class="st0" d="M262.48,462.36c7.59-1.33,17.67-3.27,25.16-5.06c18.03-5.51,21.78-6.65,38.42-14.32
								c4.88-2.63,11.46-6.01,16.22-8.85c115.73-78.56-4.9-262.75-156.41-294.31c-62.4-13-141.24-0.15-158.11,78.83l-0.43,2.51
								c-2.39,18.97-2.82,22.38-2.67,40.45c1.26,18.78,1.43,21.19,4.32,36.24l1.13,5.1c-12.66-53.57,10.89-99.71,64.99-114.06
								c72.37-19.2,172,25.77,222.53,100.42s32.82,150.74-39.55,169.94C273.01,460.6,267.8,461.64,262.48,462.36"/>
						</g>
					</g>
				</g>
			</g>
			<g class="st2">
				<defs>
					<path id="SVGID_00000001659840435825075960000012420871429272406917_" class="st2" d="M287.64,457.3
						c-8.77,2.26-20.65,4.67-29.66,5.63c-6.01,0.64-14.07,1.15-20.11,1.36c-4.13,0.14-9.64,0.03-13.76-0.19
						c-4.93-0.27-11.49-0.82-16.39-1.42c-4.32-0.53-10.05-1.42-14.31-2.32c-7.05-1.49-16.33-4-23.25-6.01
						c-3.55-1.03-8.15-2.8-11.61-4.1c-3.27-1.23-7.6-2.98-10.75-4.5c-5.96-2.87-13.88-6.78-19.6-10.11c-2.86-1.66-6.6-3.99-9.36-5.8
						c-2.75-1.8-6.29-4.37-8.99-6.25c-2.72-1.89-6.14-4.72-8.73-6.78c-2.64-2.1-6.01-5.08-8.49-7.36c-2.54-2.33-5.78-5.58-8.25-7.98
						c-2.53-2.45-5.6-6.01-7.97-8.62c-0.07-0.08-7.43-8.19-15.83-20.55c-10.69-15.79-5.79-42.17,17.29-75.88
						c48.09-70.23,156.92-145.68,243.08-168.53c-86.16,22.85-194.99,98.31-243.08,168.53c-23.09,33.71-27.98,60.09-17.29,75.88
						c-3.03-4.79-7.08-11.19-9.89-16.11c-2-3.5-4.39-8.32-6.13-11.96c-2.1-4.4-4.61-10.4-6.36-14.95
						c-1.52-3.93-3.25-9.28-4.55-13.29c-1.73-5.35-3.45-12.65-4.66-18.14c-0.95-4.31-1.78-10.15-2.5-14.5
						c-1.07-6.46-1.84-15.19-1.82-21.74c0.01-4.61-0.22-10.76,0.08-15.36c0.5-7.55,1.51-17.6,2.58-25.09
						c1.36-9.5,4.89-21.87,7.59-31.08c2.43-8.29,6.98-18.93,10.8-26.67c4.1-8.31,10.43-18.98,15.55-26.71
						c5.52-8.33,14.12-18.6,20.93-25.91c6.01-6.45,14.79-14.32,21.67-19.83c7.58-6.07,18.46-13.22,26.87-18.08
						c7.32-4.24,17.61-8.98,25.44-12.18c6.99-2.85,16.55-6.15,23.9-7.89c4.47-1.06,10.4-2.59,14.92-3.38
						c6.19-1.08,14.49-2.28,20.75-2.86c8.33-0.77,19.52-1.01,27.87-0.56c4.93,0.27,11.49,0.82,16.39,1.42
						c4.32,0.53,10.05,1.42,14.31,2.32c3.56,0.75,8.31,1.78,11.83,2.7c3.7,0.96,8.62,2.3,12.22,3.56c3.25,1.13,7.63,2.51,10.81,3.84
						c3.13,1.31,7.34,2.97,10.44,4.36c3.12,1.4,7.26,3.33,10.27,4.96c2.93,1.58,6.89,3.59,9.72,5.34
						c5.57,3.46,12.99,8.11,18.27,12.01c2.67,1.97,6.17,4.68,8.73,6.78c2.59,2.13,5.92,5.12,8.46,7.32
						c2.61,2.27,5.83,5.58,8.29,8.02c5.22,5.16,12.92,14.26,15.92,18.29c2.41,3.23,5.66,7.51,7.88,10.88
						c3.12,4.74,7.21,11.11,9.89,16.11c1.9,3.56,4.43,8.3,6.13,11.96c2.05,4.42,4.66,10.38,6.36,14.95
						c1.47,3.95,3.37,9.25,4.55,13.29c1.58,5.39,3.55,12.63,4.66,18.14c0.87,4.33,1.98,10.12,2.5,14.5
						c0.78,6.5,1.53,15.2,1.82,21.74c0.41,9.26-0.54,21.63-1.32,30.86c-0.65,7.65-2.66,17.74-4.53,25.19
						c-2.08,8.28-5.39,19.22-8.61,27.13c-3.72,9.16-9.47,21.08-14.45,29.62c-4.69,8.05-11.86,18.26-17.69,25.53
						c-8.87,11.05-24.01,27.3-45.75,41.93c-7.09,4.77-16.88,10.71-24.67,14.24c-4.34,1.96-10.05,4.76-14.51,6.43
						C304.47,452.05,294.96,455.42,287.64,457.3z"/>
				</defs>
				<clipPath id="SVGID_00000014619469580450155770000004944808964438967221_">
					<use xlink:href="#SVGID_00000001659840435825075960000012420871429272406917_"  style="overflow:visible;"/>
				</clipPath>
				<g style="clip-path:url(#SVGID_00000014619469580450155770000004944808964438967221_);">
					<g>
						<g>
							<path class="st0" d="M228.51,167.16c-30.88-45.64-20.06-92.14,24.18-103.88s105.14,15.75,136.02,61.38
								s20.06,92.14-24.18,103.88S259.4,212.79,228.51,167.16c15.67-8.85,31.5-16.74,47.08-23.39
								c16.25,24.01,48.29,38.47,71.56,32.3c23.27-6.17,28.97-30.64,12.72-54.65s-48.29-38.47-71.56-32.3
								c-23.27,6.17-28.97,30.64-12.72,54.65C260.01,150.42,244.18,158.31,228.51,167.16"/>
							<path class="st1" d="M182.42,196.29c-43.2-63.84-28.06-128.89,33.82-145.3c22.51-5.97,48.11-4.68,73.64,2.45l8.5,2.56
								c14.42,5.12,14.42,5.12,21.56,8.34c13.28,6.42,13.28,6.42,19.68,10.16c12.4,7.69,12.4,7.69,18.27,12.01
								c11.48,8.92,11.7,9.09,17.22,14.14c10.93,10.57,11.13,10.77,16.41,16.81c2.99,3.64,7.02,8.47,9.87,12.23
								c1.76,2.35,3.47,4.75,5.11,7.17c43.2,63.84,28.06,128.89-33.82,145.3C310.81,298.57,225.62,260.12,182.42,196.29
								c14.92-10.48,30.42-20.28,46.09-29.13c30.88,45.64,91.78,73.12,136.02,61.38s55.06-58.24,24.18-103.88
								s-91.78-73.12-136.02-61.38s-55.06,58.24-24.18,103.88C212.85,176.01,197.34,185.81,182.42,196.29"/>
							<g>
								<path class="st0" d="M407.17,137.79c3.03,4.79,7.07,11.19,9.89,16.11c7.82,15.27,8.46,16.52,12.49,26.91
									c5.79,16.91,6.39,18.68,9.21,31.44c0.88,5.09,2.16,11.85,2.83,16.97c6.26,49.67-18.64,91.07-70.18,104.74
									c-75.32,19.98-179.01-26.82-231.6-104.52c13.36-11.53,27.7-22.68,42.62-33.15c43.2,63.84,128.39,102.28,190.27,85.87
									c61.88-16.41,77.02-81.47,33.82-145.3c-1.64-2.43-3.35-4.82-5.11-7.17L407.17,137.79"/>
								<path class="st0" d="M139.8,229.44c-52.59-77.7-34.16-156.89,41.17-176.87c0.48-0.13,0.97-0.25,1.45-0.38
									c19.32-4.16,20.48-4.4,33.35-5.64c18.27-0.97,19.36-1.03,31.28-0.37c16.88,1.6,17.54,1.67,27.29,3.55
									c4.67,1.07,10.92,2.45,15.55,3.7c-25.54-7.13-51.13-8.42-73.64-2.45c-61.88,16.41-77.02,81.47-33.82,145.3
									C167.5,206.76,153.15,217.91,139.8,229.44"/>
							</g>
							<g>
								<path class="st1" d="M443.08,248.49c-0.1,18.51-0.12,22.36-2.67,40.45c-1.35,6.61-3.13,15.42-4.83,21.95
									c-9.27,33.6-34.89,59.48-75.13,70.15c-83.69,22.2-198.9-29.8-257.33-116.13c10.96-12.01,23.33-23.93,36.68-35.46
									c52.59,77.7,156.28,124.5,231.6,104.52c51.54-13.67,76.45-55.07,70.18-104.74C442.09,235,442.97,242.69,443.08,248.49"/>
								<path class="st1" d="M103.11,264.9c-47.53-70.24-42.84-141.57,5.62-177.68c16.68-11.45,18.82-12.93,32.95-20.11
									c17.7-7.84,20.9-9.25,38.42-14.32l2.31-0.6c-0.49,0.12-0.97,0.25-1.45,0.38c-75.32,19.98-93.75,99.17-41.17,176.87
									C126.44,240.97,114.08,252.89,103.11,264.9"/>
							</g>
							<g>
								<path class="st0" d="M428.63,331.66c-7.76,17.63-9.84,22.37-22.16,41.74l-5.87,8.15c-77.09,90.48-248.85,31.28-325.72-80.63
									c0.96-1.48,1.96-2.98,3-4.49c7.16-10.46,15.67-21.03,25.24-31.52c58.43,86.34,173.64,138.33,257.33,116.13
									c40.24-10.67,65.87-36.56,75.13-70.15C433.58,317.15,431.11,325.58,428.63,331.66"/>
								<path class="st0" d="M77.87,296.43c-1.04,1.51-2.03,3.01-3,4.49c-38.9-57.48-43.81-115.67-19.09-155.77l5.49-8.45
									c16.11-21.64,21.55-27.95,42.61-45.74l4.85-3.73c-48.47,36.11-53.16,107.44-5.62,177.68
									C93.54,275.4,85.03,285.97,77.87,296.43"/>
							</g>
							<g>
								<path class="st1" d="M363.86,419.14c-6.36,4.65-14.93,10.75-21.58,14.99c-84.36,44.92-211.56-0.39-283.54-100.99
									c3.18-9.7,8.52-20.49,16.14-32.22c96.43,133.3,265.25,158.43,325.72,80.63C392.28,391.68,379.71,406.98,363.86,419.14"/>
								<path class="st1" d="M58.74,333.14c-12.65-20.04-38.96-61.75-30.97-114.49c4.06-18.74,4.9-22.64,11.36-40.22
									c8.5-19.32,9.19-20.9,16.66-33.29c-24.72,40.1-19.81,98.29,19.09,155.77C67.26,312.65,61.92,323.44,58.74,333.14"/>
							</g>
							<g>
								<path class="st0" d="M326.06,442.98c-17.71,7.84-20.9,9.25-38.42,14.32c-7.51,1.7-17.56,3.82-25.16,5.06
									c-70.5,9.63-159.93-34.11-206.91-103.53c-1.03-7.38-0.01-15.99,3.17-25.69C131.8,434.13,259,479.44,342.28,434.13
									C337.43,436.81,331.08,440.63,326.06,442.98"/>
								<path class="st0" d="M55.57,358.83c-12.76-18.85-21.16-37.79-25.44-55.88l-1.13-5.1c-3.11-17.99-3.58-20.76-4.32-36.24
									c0.1-18.51,0.12-22.36,2.67-40.45l0.43-2.51c-3.48,27.9-2.53,63.32,30.97,114.49C55.56,342.84,54.54,351.45,55.57,358.83"/>
							</g>
							<path class="st1" d="M275.59,143.77c-16.25-24.01-10.55-48.48,12.72-54.65c23.27-6.17,55.31,8.29,71.56,32.3
								s10.55,48.48-12.72,54.65C323.88,182.24,291.84,167.78,275.59,143.77c15.5-6.61,30.75-12,45.36-15.87
								C306.35,131.77,291.09,137.15,275.59,143.77"/>
						</g>
					</g>
				</g>
			</g>
		</g>
	</g>
</g>
</svg>
